# xmcd
#
# Track frame offsets:
#	150
#	15786
#	29126
#	47571
#	62443
#	80233
#	98569
#	113525
#	139751
#	157230
#	176741
#
# Disc length: 2616 seconds
#
# Revision: 0
# Processed by: cddbd v1.5.1PL0 Copyright (c) Steve Scherf et al.
# Submitted via: dBpowerAMP V4.0
#
DISCID=880a360b
DTITLE=Steve Azar  - Waitin' on Joe 
DYEAR=2002
DGENRE=Country
TTITLE0=Steve Azar -Damn the Money 
TTITLE1=Steve Azar -Goin' to Beat the Devil (To See My Angel Tonight) 
TTITLE2=Steve Azar -. How Long Is This Time Gonna Be 
TTITLE3=Steve Azar -I Don't Have to Be Me ('Til Monday) 
TTITLE4=Steve Azar -Lay Your Heart Next to Mine
TTITLE5=Steve Azar -My Hearts Wants to Run 
TTITLE6=Steve Azar -One Good Reason Why 
TTITLE7=Steve Azar -River's on the Rise 
TTITLE8=Steve Azar -Underdog 
TTITLE9=Steve Azar -Waitin' on Joe 
TTITLE10=Steve Azar -You Don't Know How It Feels 
EXTD=Steve Azar Damn the Money \nSteve Azar Goin' to Beat the Devil (To See My Angel Tonight]\nSteve Azar How Long Is This Time Gonna Be  \nSteve Azar I Don't Have to Be Me ('Til Monday) \nSteve Azar Lay Your Heart Next to Mine\nSteve Azar My Hearts Wan
EXTD=ts to Run \nSteve Azar One Good Reason Why \nSteve Azar River's on the Rise \nSteve Azar Underdog \nSteve Azar Waitin' on Joe \nSteve Azar You Don't Know How It Feels \n\n\n\n\n\n\n\n
EXTT0=
EXTT1=
EXTT2=
EXTT3=
EXTT4=
EXTT5=
EXTT6=
EXTT7=
EXTT8=
EXTT9=
EXTT10=
PLAYORDER=
